<?xml version="1.0" standalone="no"?>
<!DOCTYPE svg PUBLIC "-//W3C//DTD SVG 20010904//EN"
 "http://www.w3.org/TR/2001/REC-SVG-20010904/DTD/svg10.dtd">
<svg version="1.0" xmlns="http://www.w3.org/2000/svg"
 width="166.000000pt" height="168.000000pt" viewBox="0 0 166.000000 168.000000"
 preserveAspectRatio="xMidYMid meet">

<g transform="translate(0.000000,168.000000) scale(0.100000,-0.100000)"
fill="#000000" stroke="none">
<path d="M590 1593 c-138 -92 -427 -298 -449 -319 l-25 -23 58 -86 c32 -47 61
-83 66 -80 4 3 11 17 15 32 9 38 23 53 50 53 53 0 73 -30 38 -55 -17 -12 -17
-14 -1 -32 14 -15 17 -50 20 -243 l3 -225 34 -96 35 -96 -36 -44 c-61 -76
-172 -275 -158 -284 11 -7 189 126 239 179 l34 35 51 -52 c61 -62 146 -120
227 -155 57 -25 59 -25 102 -8 25 9 73 34 108 55 l64 39 34 -30 c18 -16 58
-41 88 -56 63 -31 57 -36 105 78 43 99 43 100 15 100 -22 0 -117 28 -117 35 0
1 17 29 38 61 84 129 112 231 112 411 l0 133 33 30 32 30 -32 28 -33 28 0 135
0 134 31 38 c23 28 38 37 62 37 48 1 87 40 87 89 0 29 -47 80 -83 89 -64 17
-107 -19 -107 -92 0 -26 -11 -45 -52 -89 l-53 -56 -123 13 c-68 8 -129 19
-135 25 -14 14 -47 14 -47 1 0 -5 -20 -10 -45 -10 -33 0 -43 3 -39 13 4 11
-88 172 -141 245 -22 31 -41 28 -105 -15z m883 -84 c23 -28 22 -64 -3 -89 -27
-27 -44 -25 -79 8 -41 38 -47 66 -20 93 26 26 75 20 102 -12z m-100 -105 c9
-10 -32 -64 -48 -64 -24 0 -25 17 -4 44 20 25 39 33 52 20z m-76 -90 c-9 -9
-28 6 -21 18 4 6 10 6 17 -1 6 -6 8 -13 4 -17z m-354 -35 c27 -14 107 -90 107
-102 0 -14 -271 -338 -280 -335 -8 3 -94 123 -229 318 l-66 95 -15 -69 c-19
-89 -40 -100 -40 -21 0 98 -18 90 280 118 86 9 223 6 243 -4z m77 -9 c0 -5 -7
-7 -15 -4 -8 4 -15 8 -15 10 0 2 7 4 15 4 8 0 15 -4 15 -10z m159 -6 c7 -6
-31 -44 -44 -44 -6 0 -24 14 -41 31 l-29 30 55 -7 c30 -4 57 -8 59 -10z m55
-23 c4 -5 -6 -23 -20 -40 -21 -25 -29 -29 -40 -20 -12 9 -10 16 7 40 20 29 43
37 53 20z m-113 -48 c30 -27 72 -62 93 -79 24 -19 36 -35 32 -43 -7 -11 -42
15 -166 127 -65 59 -26 53 41 -5z m159 -33 c0 -33 -3 -60 -7 -60 -4 0 -19 12
-34 26 l-28 27 26 33 c14 19 29 34 34 34 5 0 9 -27 9 -60z m-180 -14 c12 -16
17 -10 -203 -264 -80 -93 -107 -113 -107 -79 0 7 55 77 121 157 67 80 130 157
141 173 22 31 31 33 48 13z m44 -42 c9 -3 16 -11 16 -18 0 -6 -45 -60 -100
-121 -55 -60 -124 -138 -153 -172 -52 -61 -77 -77 -77 -48 0 8 62 88 138 176
75 88 141 167 147 175 12 16 9 16 29 8z m95 -75 l43 -30 -4 -192 c-3 -190 -4
-193 -36 -274 -33 -83 -88 -174 -108 -180 -13 -4 -58 37 -110 102 -47 58 -164
228 -164 239 0 14 317 366 330 366 4 0 26 -14 49 -31z m-735 -116 c69 -81 156
-197 156 -209 0 -15 -168 -214 -181 -214 -4 0 -17 28 -30 62 -19 55 -23 88
-27 256 -2 105 -2 192 1 192 3 0 39 -39 81 -87z m856 67 c0 -5 -4 -10 -10 -10
-5 0 -10 5 -10 10 0 6 5 10 10 10 6 0 10 -4 10 -10z m-670 -324 c0 -24 -184
-232 -188 -213 -3 17 164 227 180 227 4 0 8 -6 8 -14z m37 -53 c2 -6 -24 -42
-58 -80 -34 -37 -75 -85 -92 -105 -33 -42 -50 -49 -45 -19 4 24 170 221 182
218 6 -2 11 -8 13 -14z m96 -131 c36 -54 93 -128 126 -164 34 -36 61 -70 61
-75 0 -10 -73 -56 -123 -77 -38 -15 -40 -15 -99 14 -33 16 -74 40 -91 51 -46
32 -137 121 -137 135 0 13 178 214 190 214 3 0 36 -44 73 -98z m-391 -131
c-18 -22 -32 -45 -32 -50 0 -21 19 -11 46 24 27 36 44 45 44 22 0 -19 -164
-167 -185 -167 -9 0 65 130 105 181 20 28 39 43 44 38 6 -5 -3 -24 -22 -48z"/>
<path d="M225 1404 c-57 -42 -72 -61 -51 -66 14 -3 136 86 136 100 0 21 -23
12 -85 -34z"/>
</g>
</svg>
